# xmcd
#
# Track frame offsets:
#  150
#  23963
#  45620
#  63130
#  88053
#  113935
#  131513
#  148343
#  168415
#  188245
#  218158
#  234103
#  254690
#
# Disc length: 3597 seconds
#
# Revision: 6
# Processed by: cddbd v1.5.1PL2 Copyright (c) Steve Scherf et al.
# Submitted via: Collectorz.com_Music_Collector 6.11
#
DISCID=ba0e0b0d
DTITLE=Scott Cossu - Switchback
DYEAR=1990
DGENRE=New Age
TTITLE0=Desert Lightning
TTITLE1=Country Faire
TTITLE2=Switchback
TTITLE3=Serpentine Wall
TTITLE4=Infinite Circles
TTITLE5=Manhattan Underground
TTITLE6=A Child's Eyes (Jenny's Song)
TTITLE7=Stehekin
TTITLE8=Last Snow
TTITLE9=Beyond The Looking Glass
TTITLE10=Atacama
TTITLE11=Sanctuary
TTITLE12=Deja Blues
EXTD=
EXTT0=
EXTT1=
EXTT2=
EXTT3=
EXTT4=
EXTT5=
EXTT6=
EXTT7=
EXTT8=
EXTT9=
EXTT10=
EXTT11=
EXTT12=
PLAYORDER=
